<?xml version="1.0" encoding="UTF-8" standalone="no"?>
<svg xmlns="http://www.w3.org/2000/svg" width="809.599976mm" height="457.000000mm" x="0" y="0" viewBox="0 0 809.599976 457.000000">
<path stroke="#0000ff" fill="none" stroke-width=".05mm" d="M375.000000 1.000000 L530.799988 1.000000 L530.799988 23.333332 L540.799988 33.333332 L540.799988 73.333328 L530.799988 83.333328 L530.799988 128.000000 L540.799988 138.000000 L540.799988 178.000000 L530.799988 188.000000 L530.799988 232.666656 L540.799988 242.666656 L540.799988 282.666656 L530.799988 292.666656 L530.799988 314.999969 L375.000000 314.999969 Z" />
<circle  cx="526.400024" cy="105.666664" r="1.750000" stroke="#0000ff" fill="none" stroke-width=".05mm" />
<circle  cx="526.400024" cy="210.333328" r="1.750000" stroke="#0000ff" fill="none" stroke-width=".05mm" />
<path stroke="#0000ff" fill="none" stroke-width=".05mm" d="M522.000000 33.433334 L521.500000 32.933334 L522.000000 33.433334 L530.599976 33.433334 L531.099976 32.933334 L530.599976 33.433334 L530.599976 73.233330 L531.099976 73.733330 L530.599976 73.233330 L522.000000 73.233330 L521.500000 73.733330 L522.000000 73.233330 L522.000000 33.433334 Z" />
<path stroke="#0000ff" fill="none" stroke-width=".05mm" d="M522.000000 138.100006 L521.500000 137.600006 L522.000000 138.100006 L530.599976 138.100006 L531.099976 137.600006 L530.599976 138.100006 L530.599976 177.899994 L531.099976 178.399994 L530.599976 177.899994 L522.000000 177.899994 L521.500000 178.399994 L522.000000 177.899994 L522.000000 138.100006 Z" />
<path stroke="#0000ff" fill="none" stroke-width=".05mm" d="M522.000000 242.766663 L521.500000 242.266663 L522.000000 242.766663 L530.599976 242.766663 L531.099976 242.266663 L530.599976 242.766663 L530.599976 282.566650 L531.099976 283.066650 L530.599976 282.566650 L522.000000 282.566650 L521.500000 283.066650 L522.000000 282.566650 L522.000000 242.766663 Z" />
<path stroke="#0000ff" fill="none" stroke-width=".05mm" d="M428.600006 6.099999 L428.100006 5.599999 L428.600006 6.099999 L468.399994 6.099999 L468.899994 5.599999 L468.399994 6.099999 L468.399994 14.700000 L468.899994 15.200000 L468.399994 14.700000 L428.600006 14.700000 L428.100006 15.200000 L428.600006 14.700000 L428.600006 6.099999 Z" />
<circle  cx="411.750000" cy="10.400000" r="1.750000" stroke="#0000ff" fill="none" stroke-width=".05mm" />
<path stroke="#0000ff" fill="none" stroke-width=".05mm" d="M428.600006 301.300018 L428.100006 300.800018 L428.600006 301.300018 L468.399994 301.300018 L468.899994 300.800018 L468.399994 301.300018 L468.399994 309.899994 L468.899994 310.399994 L468.399994 309.899994 L428.600006 309.899994 L428.100006 310.399994 L428.600006 309.899994 L428.600006 301.300018 Z" />
<circle  cx="411.750000" cy="305.600006" r="1.750000" stroke="#0000ff" fill="none" stroke-width=".05mm" />
<path stroke="#0000ff" fill="none" stroke-width=".05mm" d="M428.600006 171.699997 L428.100006 171.199997 L428.600006 171.699997 L468.399994 171.699997 L468.899994 171.199997 L468.399994 171.699997 L468.399994 180.300003 L468.899994 180.800003 L468.399994 180.300003 L428.600006 180.300003 L428.100006 180.800003 L428.600006 180.300003 L428.600006 171.699997 Z" />
<circle  cx="411.750000" cy="176.000000" r="1.750000" stroke="#0000ff" fill="none" stroke-width=".05mm" />
<path stroke="#0000ff" fill="none" stroke-width=".05mm" d="M428.600006 153.699997 L428.100006 153.199997 L428.600006 153.699997 L468.399994 153.699997 L468.899994 153.199997 L468.399994 153.699997 L468.399994 162.300003 L468.899994 162.800003 L468.399994 162.300003 L428.600006 162.300003 L428.100006 162.800003 L428.600006 162.300003 L428.600006 153.699997 Z" />
<circle  cx="411.750000" cy="158.000000" r="1.750000" stroke="#0000ff" fill="none" stroke-width=".05mm" />
<circle  cx="516.099976" cy="308.799988" r="1.350000" stroke="#0000ff" fill="none" stroke-width=".05mm" />
<circle  cx="490.000000" cy="308.799988" r="1.350000" stroke="#0000ff" fill="none" stroke-width=".05mm" />
<circle  cx="516.099976" cy="195.800003" r="1.350000" stroke="#0000ff" fill="none" stroke-width=".05mm" />
<circle  cx="490.000000" cy="195.800003" r="1.350000" stroke="#0000ff" fill="none" stroke-width=".05mm" />
<circle  cx="463.899994" cy="195.800003" r="1.350000" stroke="#0000ff" fill="none" stroke-width=".05mm" />
<path stroke="#0000ff" fill="none" stroke-width=".05mm" d="M462.000000 200.250000 L518.000000 200.250000 L518.000000 304.250000 L462.000000 304.250000 L462.000000 200.250000 Z" />
<path stroke="#0000ff" fill="none" stroke-width=".05mm" d="M391.705994 189.536011 L399.500000 185.036011 L407.294006 189.536011 L407.294006 198.536011 L399.500000 203.036011 L391.705994 198.536011 Z" />
<path stroke="#0000ff" fill="none" stroke-width=".05mm" d="M409.705994 189.536011 L417.500000 185.036011 L425.294006 189.536011 L425.294006 198.536011 L417.500000 203.036011 L409.705994 198.536011 Z" />
<path stroke="#0000ff" fill="none" stroke-width=".05mm" d="M427.705994 189.536011 L435.500000 185.036011 L443.294006 189.536011 L443.294006 198.536011 L435.500000 203.036011 L427.705994 198.536011 Z" />
<path stroke="#0000ff" fill="none" stroke-width=".05mm" d="M382.705994 205.124008 L390.500000 200.624008 L398.294006 205.124008 L398.294006 214.124008 L390.500000 218.624008 L382.705994 214.124008 Z" />
<path stroke="#0000ff" fill="none" stroke-width=".05mm" d="M400.705994 205.124008 L408.500000 200.624008 L416.294006 205.124008 L416.294006 214.124008 L408.500000 218.624008 L400.705994 214.124008 Z" />
<path stroke="#0000ff" fill="none" stroke-width=".05mm" d="M418.705994 205.124008 L426.500000 200.624008 L434.294006 205.124008 L434.294006 214.124008 L426.500000 218.624008 L418.705994 214.124008 Z" />
<path stroke="#0000ff" fill="none" stroke-width=".05mm" d="M436.705994 205.124008 L444.500000 200.624008 L452.294006 205.124008 L452.294006 214.124008 L444.500000 218.624008 L436.705994 214.124008 Z" />
<path stroke="#0000ff" fill="none" stroke-width=".05mm" d="M391.705994 220.712006 L399.500000 216.212006 L407.294006 220.712006 L407.294006 229.712006 L399.500000 234.212006 L391.705994 229.712006 Z" />
<path stroke="#0000ff" fill="none" stroke-width=".05mm" d="M409.705994 220.712006 L417.500000 216.212006 L425.294006 220.712006 L425.294006 229.712006 L417.500000 234.212006 L409.705994 229.712006 Z" />
<path stroke="#0000ff" fill="none" stroke-width=".05mm" d="M427.705994 220.712006 L435.500000 216.212006 L443.294006 220.712006 L443.294006 229.712006 L435.500000 234.212006 L427.705994 229.712006 Z" />
<path stroke="#0000ff" fill="none" stroke-width=".05mm" d="M382.705994 236.300003 L390.500000 231.800003 L398.294006 236.300003 L398.294006 245.300003 L390.500000 249.800003 L382.705994 245.300003 Z" />
<path stroke="#0000ff" fill="none" stroke-width=".05mm" d="M400.705994 236.300003 L408.500000 231.800003 L416.294006 236.300003 L416.294006 245.300003 L408.500000 249.800003 L400.705994 245.300003 Z" />
<path stroke="#0000ff" fill="none" stroke-width=".05mm" d="M418.705994 236.300003 L426.500000 231.800003 L434.294006 236.300003 L434.294006 245.300003 L426.500000 249.800003 L418.705994 245.300003 Z" />
<path stroke="#0000ff" fill="none" stroke-width=".05mm" d="M436.705994 236.300003 L444.500000 231.800003 L452.294006 236.300003 L452.294006 245.300003 L444.500000 249.800003 L436.705994 245.300003 Z" />
<path stroke="#0000ff" fill="none" stroke-width=".05mm" d="M391.705994 251.888000 L399.500000 247.388000 L407.294006 251.888000 L407.294006 260.888000 L399.500000 265.388000 L391.705994 260.888000 Z" />
<path stroke="#0000ff" fill="none" stroke-width=".05mm" d="M409.705994 251.888000 L417.500000 247.388000 L425.294006 251.888000 L425.294006 260.888000 L417.500000 265.388000 L409.705994 260.888000 Z" />
<path stroke="#0000ff" fill="none" stroke-width=".05mm" d="M427.705994 251.888000 L435.500000 247.388000 L443.294006 251.888000 L443.294006 260.888000 L435.500000 265.388000 L427.705994 260.888000 Z" />
<path stroke="#0000ff" fill="none" stroke-width=".05mm" d="M382.705994 267.476013 L390.500000 262.976013 L398.294006 267.476013 L398.294006 276.476013 L390.500000 280.976013 L382.705994 276.476013 Z" />
<path stroke="#0000ff" fill="none" stroke-width=".05mm" d="M400.705994 267.476013 L408.500000 262.976013 L416.294006 267.476013 L416.294006 276.476013 L408.500000 280.976013 L400.705994 276.476013 Z" />
<path stroke="#0000ff" fill="none" stroke-width=".05mm" d="M418.705994 267.476013 L426.500000 262.976013 L434.294006 267.476013 L434.294006 276.476013 L426.500000 280.976013 L418.705994 276.476013 Z" />
<path stroke="#0000ff" fill="none" stroke-width=".05mm" d="M436.705994 267.476013 L444.500000 262.976013 L452.294006 267.476013 L452.294006 276.476013 L444.500000 280.976013 L436.705994 276.476013 Z" />
<path stroke="#0000ff" fill="none" stroke-width=".05mm" d="M391.705994 283.063995 L399.500000 278.563995 L407.294006 283.063995 L407.294006 292.063995 L399.500000 296.563995 L391.705994 292.063995 Z" />
<path stroke="#0000ff" fill="none" stroke-width=".05mm" d="M409.705994 283.063995 L417.500000 278.563995 L425.294006 283.063995 L425.294006 292.063995 L417.500000 296.563995 L409.705994 292.063995 Z" />
<path stroke="#0000ff" fill="none" stroke-width=".05mm" d="M427.705994 283.063995 L435.500000 278.563995 L443.294006 283.063995 L443.294006 292.063995 L435.500000 296.563995 L427.705994 292.063995 Z" />
<path stroke="#0000ff" fill="none" stroke-width=".05mm" d="M382.705994 25.347996 L390.500000 20.847996 L398.294006 25.347996 L398.294006 34.347996 L390.500000 38.847996 L382.705994 34.347996 Z" />
<path stroke="#0000ff" fill="none" stroke-width=".05mm" d="M400.705994 25.347996 L408.500000 20.847996 L416.294006 25.347996 L416.294006 34.347996 L408.500000 38.847996 L400.705994 34.347996 Z" />
<path stroke="#0000ff" fill="none" stroke-width=".05mm" d="M418.705994 25.347996 L426.500000 20.847996 L434.294006 25.347996 L434.294006 34.347996 L426.500000 38.847996 L418.705994 34.347996 Z" />
<path stroke="#0000ff" fill="none" stroke-width=".05mm" d="M436.705994 25.347996 L444.500000 20.847996 L452.294006 25.347996 L452.294006 34.347996 L444.500000 38.847996 L436.705994 34.347996 Z" />
<path stroke="#0000ff" fill="none" stroke-width=".05mm" d="M454.705994 25.347996 L462.500000 20.847996 L470.294006 25.347996 L470.294006 34.347996 L462.500000 38.847996 L454.705994 34.347996 Z" />
<path stroke="#0000ff" fill="none" stroke-width=".05mm" d="M472.705994 25.347996 L480.500000 20.847996 L488.294006 25.347996 L488.294006 34.347996 L480.500000 38.847996 L472.705994 34.347996 Z" />
<path stroke="#0000ff" fill="none" stroke-width=".05mm" d="M490.705994 25.347996 L498.500000 20.847996 L506.294006 25.347996 L506.294006 34.347996 L498.500000 38.847996 L490.705994 34.347996 Z" />
<path stroke="#0000ff" fill="none" stroke-width=".05mm" d="M391.705994 40.935997 L399.500000 36.435997 L407.294006 40.935997 L407.294006 49.935997 L399.500000 54.435997 L391.705994 49.935997 Z" />
<path stroke="#0000ff" fill="none" stroke-width=".05mm" d="M409.705994 40.935997 L417.500000 36.435997 L425.294006 40.935997 L425.294006 49.935997 L417.500000 54.435997 L409.705994 49.935997 Z" />
<path stroke="#0000ff" fill="none" stroke-width=".05mm" d="M427.705994 40.935997 L435.500000 36.435997 L443.294006 40.935997 L443.294006 49.935997 L435.500000 54.435997 L427.705994 49.935997 Z" />
<path stroke="#0000ff" fill="none" stroke-width=".05mm" d="M445.705994 40.935997 L453.500000 36.435997 L461.294006 40.935997 L461.294006 49.935997 L453.500000 54.435997 L445.705994 49.935997 Z" />
<path stroke="#0000ff" fill="none" stroke-width=".05mm" d="M463.705994 40.935997 L471.500000 36.435997 L479.294006 40.935997 L479.294006 49.935997 L471.500000 54.435997 L463.705994 49.935997 Z" />
<path stroke="#0000ff" fill="none" stroke-width=".05mm" d="M481.705994 40.935997 L489.500000 36.435997 L497.294006 40.935997 L497.294006 49.935997 L489.500000 54.435997 L481.705994 49.935997 Z" />
<path stroke="#0000ff" fill="none" stroke-width=".05mm" d="M499.705994 40.935997 L507.500000 36.435997 L515.294006 40.935997 L515.294006 49.935997 L507.500000 54.435997 L499.705994 49.935997 Z" />
<path stroke="#0000ff" fill="none" stroke-width=".05mm" d="M382.705994 56.523994 L390.500000 52.023994 L398.294006 56.523994 L398.294006 65.523994 L390.500000 70.023994 L382.705994 65.523994 Z" />
<path stroke="#0000ff" fill="none" stroke-width=".05mm" d="M400.705994 56.523994 L408.500000 52.023994 L416.294006 56.523994 L416.294006 65.523994 L408.500000 70.023994 L400.705994 65.523994 Z" />
<path stroke="#0000ff" fill="none" stroke-width=".05mm" d="M418.705994 56.523994 L426.500000 52.023994 L434.294006 56.523994 L434.294006 65.523994 L426.500000 70.023994 L418.705994 65.523994 Z" />
<path stroke="#0000ff" fill="none" stroke-width=".05mm" d="M436.705994 56.523994 L444.500000 52.023994 L452.294006 56.523994 L452.294006 65.523994 L444.500000 70.023994 L436.705994 65.523994 Z" />
<path stroke="#0000ff" fill="none" stroke-width=".05mm" d="M454.705994 56.523994 L462.500000 52.023994 L470.294006 56.523994 L470.294006 65.523994 L462.500000 70.023994 L454.705994 65.523994 Z" />
<path stroke="#0000ff" fill="none" stroke-width=".05mm" d="M472.705994 56.523994 L480.500000 52.023994 L488.294006 56.523994 L488.294006 65.523994 L480.500000 70.023994 L472.705994 65.523994 Z" />
<path stroke="#0000ff" fill="none" stroke-width=".05mm" d="M490.705994 56.523994 L498.500000 52.023994 L506.294006 56.523994 L506.294006 65.523994 L498.500000 70.023994 L490.705994 65.523994 Z" />
<path stroke="#0000ff" fill="none" stroke-width=".05mm" d="M391.705994 72.112000 L399.500000 67.612000 L407.294006 72.112000 L407.294006 81.112000 L399.500000 85.612000 L391.705994 81.112000 Z" />
<path stroke="#0000ff" fill="none" stroke-width=".05mm" d="M409.705994 72.112000 L417.500000 67.612000 L425.294006 72.112000 L425.294006 81.112000 L417.500000 85.612000 L409.705994 81.112000 Z" />
<path stroke="#0000ff" fill="none" stroke-width=".05mm" d="M427.705994 72.112000 L435.500000 67.612000 L443.294006 72.112000 L443.294006 81.112000 L435.500000 85.612000 L427.705994 81.112000 Z" />
<path stroke="#0000ff" fill="none" stroke-width=".05mm" d="M445.705994 72.112000 L453.500000 67.612000 L461.294006 72.112000 L461.294006 81.112000 L453.500000 85.612000 L445.705994 81.112000 Z" />
<path stroke="#0000ff" fill="none" stroke-width=".05mm" d="M463.705994 72.112000 L471.500000 67.612000 L479.294006 72.112000 L479.294006 81.112000 L471.500000 85.612000 L463.705994 81.112000 Z" />
<path stroke="#0000ff" fill="none" stroke-width=".05mm" d="M481.705994 72.112000 L489.500000 67.612000 L497.294006 72.112000 L497.294006 81.112000 L489.500000 85.612000 L481.705994 81.112000 Z" />
<path stroke="#0000ff" fill="none" stroke-width=".05mm" d="M499.705994 72.112000 L507.500000 67.612000 L515.294006 72.112000 L515.294006 81.112000 L507.500000 85.612000 L499.705994 81.112000 Z" />
<path stroke="#0000ff" fill="none" stroke-width=".05mm" d="M382.705994 87.699997 L390.500000 83.199997 L398.294006 87.699997 L398.294006 96.699997 L390.500000 101.199997 L382.705994 96.699997 Z" />
<path stroke="#0000ff" fill="none" stroke-width=".05mm" d="M400.705994 87.699997 L408.500000 83.199997 L416.294006 87.699997 L416.294006 96.699997 L408.500000 101.199997 L400.705994 96.699997 Z" />
<path stroke="#0000ff" fill="none" stroke-width=".05mm" d="M418.705994 87.699997 L426.500000 83.199997 L434.294006 87.699997 L434.294006 96.699997 L426.500000 101.199997 L418.705994 96.699997 Z" />
<path stroke="#0000ff" fill="none" stroke-width=".05mm" d="M436.705994 87.699997 L444.500000 83.199997 L452.294006 87.699997 L452.294006 96.699997 L444.500000 101.199997 L436.705994 96.699997 Z" />
<path stroke="#0000ff" fill="none" stroke-width=".05mm" d="M454.705994 87.699997 L462.500000 83.199997 L470.294006 87.699997 L470.294006 96.699997 L462.500000 101.199997 L454.705994 96.699997 Z" />
<path stroke="#0000ff" fill="none" stroke-width=".05mm" d="M472.705994 87.699997 L480.500000 83.199997 L488.294006 87.699997 L488.294006 96.699997 L480.500000 101.199997 L472.705994 96.699997 Z" />
<path stroke="#0000ff" fill="none" stroke-width=".05mm" d="M490.705994 87.699997 L498.500000 83.199997 L506.294006 87.699997 L506.294006 96.699997 L498.500000 101.199997 L490.705994 96.699997 Z" />
<path stroke="#0000ff" fill="none" stroke-width=".05mm" d="M391.705994 103.287994 L399.500000 98.787994 L407.294006 103.287994 L407.294006 112.287994 L399.500000 116.787994 L391.705994 112.287994 Z" />
<path stroke="#0000ff" fill="none" stroke-width=".05mm" d="M409.705994 103.287994 L417.500000 98.787994 L425.294006 103.287994 L425.294006 112.287994 L417.500000 116.787994 L409.705994 112.287994 Z" />
<path stroke="#0000ff" fill="none" stroke-width=".05mm" d="M427.705994 103.287994 L435.500000 98.787994 L443.294006 103.287994 L443.294006 112.287994 L435.500000 116.787994 L427.705994 112.287994 Z" />
<path stroke="#0000ff" fill="none" stroke-width=".05mm" d="M445.705994 103.287994 L453.500000 98.787994 L461.294006 103.287994 L461.294006 112.287994 L453.500000 116.787994 L445.705994 112.287994 Z" />
<path stroke="#0000ff" fill="none" stroke-width=".05mm" d="M463.705994 103.287994 L471.500000 98.787994 L479.294006 103.287994 L479.294006 112.287994 L471.500000 116.787994 L463.705994 112.287994 Z" />
<path stroke="#0000ff" fill="none" stroke-width=".05mm" d="M481.705994 103.287994 L489.500000 98.787994 L497.294006 103.287994 L497.294006 112.287994 L489.500000 116.787994 L481.705994 112.287994 Z" />
<path stroke="#0000ff" fill="none" stroke-width=".05mm" d="M499.705994 103.287994 L507.500000 98.787994 L515.294006 103.287994 L515.294006 112.287994 L507.500000 116.787994 L499.705994 112.287994 Z" />
<path stroke="#0000ff" fill="none" stroke-width=".05mm" d="M382.705994 118.875999 L390.500000 114.375999 L398.294006 118.875999 L398.294006 127.875999 L390.500000 132.376007 L382.705994 127.875999 Z" />
<path stroke="#0000ff" fill="none" stroke-width=".05mm" d="M400.705994 118.875999 L408.500000 114.375999 L416.294006 118.875999 L416.294006 127.875999 L408.500000 132.376007 L400.705994 127.875999 Z" />
<path stroke="#0000ff" fill="none" stroke-width=".05mm" d="M418.705994 118.875999 L426.500000 114.375999 L434.294006 118.875999 L434.294006 127.875999 L426.500000 132.376007 L418.705994 127.875999 Z" />
<path stroke="#0000ff" fill="none" stroke-width=".05mm" d="M436.705994 118.875999 L444.500000 114.375999 L452.294006 118.875999 L452.294006 127.875999 L444.500000 132.376007 L436.705994 127.875999 Z" />
<path stroke="#0000ff" fill="none" stroke-width=".05mm" d="M454.705994 118.875999 L462.500000 114.375999 L470.294006 118.875999 L470.294006 127.875999 L462.500000 132.376007 L454.705994 127.875999 Z" />
<path stroke="#0000ff" fill="none" stroke-width=".05mm" d="M472.705994 118.875999 L480.500000 114.375999 L488.294006 118.875999 L488.294006 127.875999 L480.500000 132.376007 L472.705994 127.875999 Z" />
<path stroke="#0000ff" fill="none" stroke-width=".05mm" d="M490.705994 118.875999 L498.500000 114.375999 L506.294006 118.875999 L506.294006 127.875999 L498.500000 132.376007 L490.705994 127.875999 Z" />
<path stroke="#0000ff" fill="none" stroke-width=".05mm" d="M391.705994 134.463989 L399.500000 129.963989 L407.294006 134.463989 L407.294006 143.463989 L399.500000 147.963989 L391.705994 143.463989 Z" />
<path stroke="#0000ff" fill="none" stroke-width=".05mm" d="M409.705994 134.463989 L417.500000 129.963989 L425.294006 134.463989 L425.294006 143.463989 L417.500000 147.963989 L409.705994 143.463989 Z" />
<path stroke="#0000ff" fill="none" stroke-width=".05mm" d="M427.705994 134.463989 L435.500000 129.963989 L443.294006 134.463989 L443.294006 143.463989 L435.500000 147.963989 L427.705994 143.463989 Z" />
<path stroke="#0000ff" fill="none" stroke-width=".05mm" d="M445.705994 134.463989 L453.500000 129.963989 L461.294006 134.463989 L461.294006 143.463989 L453.500000 147.963989 L445.705994 143.463989 Z" />
<path stroke="#0000ff" fill="none" stroke-width=".05mm" d="M463.705994 134.463989 L471.500000 129.963989 L479.294006 134.463989 L479.294006 143.463989 L471.500000 147.963989 L463.705994 143.463989 Z" />
<path stroke="#0000ff" fill="none" stroke-width=".05mm" d="M481.705994 134.463989 L489.500000 129.963989 L497.294006 134.463989 L497.294006 143.463989 L489.500000 147.963989 L481.705994 143.463989 Z" />
<path stroke="#0000ff" fill="none" stroke-width=".05mm" d="M499.705994 134.463989 L507.500000 129.963989 L515.294006 134.463989 L515.294006 143.463989 L507.500000 147.963989 L499.705994 143.463989 Z" />
<path stroke="#0000ff" fill="none" stroke-width=".05mm" d="M547.000000 1.000000 L702.799988 1.000000 L702.799988 23.333332 L712.799988 33.333332 L712.799988 73.333328 L702.799988 83.333328 L702.799988 128.000000 L712.799988 138.000000 L712.799988 178.000000 L702.799988 188.000000 L702.799988 232.666656 L712.799988 242.666656 L712.799988 282.666656 L702.799988 292.666656 L702.799988 314.999969 L547.000000 314.999969 Z" />
<circle  cx="698.400024" cy="105.666664" r="1.750000" stroke="#0000ff" fill="none" stroke-width=".05mm" />
<circle  cx="698.400024" cy="210.333328" r="1.750000" stroke="#0000ff" fill="none" stroke-width=".05mm" />
<path stroke="#0000ff" fill="none" stroke-width=".05mm" d="M694.000000 33.433334 L693.500000 32.933334 L694.000000 33.433334 L702.599976 33.433334 L703.099976 32.933334 L702.599976 33.433334 L702.599976 73.233330 L703.099976 73.733330 L702.599976 73.233330 L694.000000 73.233330 L693.500000 73.733330 L694.000000 73.233330 L694.000000 33.433334 Z" />
<path stroke="#0000ff" fill="none" stroke-width=".05mm" d="M694.000000 138.100006 L693.500000 137.600006 L694.000000 138.100006 L702.599976 138.100006 L703.099976 137.600006 L702.599976 138.100006 L702.599976 177.899994 L703.099976 178.399994 L702.599976 177.899994 L694.000000 177.899994 L693.500000 178.399994 L694.000000 177.899994 L694.000000 138.100006 Z" />
<path stroke="#0000ff" fill="none" stroke-width=".05mm" d="M694.000000 242.766663 L693.500000 242.266663 L694.000000 242.766663 L702.599976 242.766663 L703.099976 242.266663 L702.599976 242.766663 L702.599976 282.566650 L703.099976 283.066650 L702.599976 282.566650 L694.000000 282.566650 L693.500000 283.066650 L694.000000 282.566650 L694.000000 242.766663 Z" />
<path stroke="#0000ff" fill="none" stroke-width=".05mm" d="M600.599976 6.099999 L600.099976 5.599999 L600.599976 6.099999 L640.400024 6.099999 L640.900024 5.599999 L640.400024 6.099999 L640.400024 14.700000 L640.900024 15.200000 L640.400024 14.700000 L600.599976 14.700000 L600.099976 15.200000 L600.599976 14.700000 L600.599976 6.099999 Z" />
<circle  cx="583.750000" cy="10.400000" r="1.750000" stroke="#0000ff" fill="none" stroke-width=".05mm" />
<path stroke="#0000ff" fill="none" stroke-width=".05mm" d="M600.599976 301.300018 L600.099976 300.800018 L600.599976 301.300018 L640.400024 301.300018 L640.900024 300.800018 L640.400024 301.300018 L640.400024 309.899994 L640.900024 310.399994 L640.400024 309.899994 L600.599976 309.899994 L600.099976 310.399994 L600.599976 309.899994 L600.599976 301.300018 Z" />
<circle  cx="583.750000" cy="305.600006" r="1.750000" stroke="#0000ff" fill="none" stroke-width=".05mm" />
<path stroke="#0000ff" fill="none" stroke-width=".05mm" d="M600.599976 171.699997 L600.099976 171.199997 L600.599976 171.699997 L640.400024 171.699997 L640.900024 171.199997 L640.400024 171.699997 L640.400024 180.300003 L640.900024 180.800003 L640.400024 180.300003 L600.599976 180.300003 L600.099976 180.800003 L600.599976 180.300003 L600.599976 171.699997 Z" />
<circle  cx="583.750000" cy="176.000000" r="1.750000" stroke="#0000ff" fill="none" stroke-width=".05mm" />
<path stroke="#0000ff" fill="none" stroke-width=".05mm" d="M600.599976 153.699997 L600.099976 153.199997 L600.599976 153.699997 L640.400024 153.699997 L640.900024 153.199997 L640.400024 153.699997 L640.400024 162.300003 L640.900024 162.800003 L640.400024 162.300003 L600.599976 162.300003 L600.099976 162.800003 L600.599976 162.300003 L600.599976 153.699997 Z" />
<circle  cx="583.750000" cy="158.000000" r="1.750000" stroke="#0000ff" fill="none" stroke-width=".05mm" />
<path stroke="#0000ff" fill="none" stroke-width=".05mm" d="M563.705994 189.536011 L571.500000 185.036011 L579.294006 189.536011 L579.294006 198.536011 L571.500000 203.036011 L563.705994 198.536011 Z" />
<path stroke="#0000ff" fill="none" stroke-width=".05mm" d="M581.705994 189.536011 L589.500000 185.036011 L597.294006 189.536011 L597.294006 198.536011 L589.500000 203.036011 L581.705994 198.536011 Z" />
<path stroke="#0000ff" fill="none" stroke-width=".05mm" d="M599.705994 189.536011 L607.500000 185.036011 L615.294006 189.536011 L615.294006 198.536011 L607.500000 203.036011 L599.705994 198.536011 Z" />
<path stroke="#0000ff" fill="none" stroke-width=".05mm" d="M617.705994 189.536011 L625.500000 185.036011 L633.294006 189.536011 L633.294006 198.536011 L625.500000 203.036011 L617.705994 198.536011 Z" />
<path stroke="#0000ff" fill="none" stroke-width=".05mm" d="M635.705994 189.536011 L643.500000 185.036011 L651.294006 189.536011 L651.294006 198.536011 L643.500000 203.036011 L635.705994 198.536011 Z" />
<path stroke="#0000ff" fill="none" stroke-width=".05mm" d="M653.705994 189.536011 L661.500000 185.036011 L669.294006 189.536011 L669.294006 198.536011 L661.500000 203.036011 L653.705994 198.536011 Z" />
<path stroke="#0000ff" fill="none" stroke-width=".05mm" d="M671.705994 189.536011 L679.500000 185.036011 L687.294006 189.536011 L687.294006 198.536011 L679.500000 203.036011 L671.705994 198.536011 Z" />
<path stroke="#0000ff" fill="none" stroke-width=".05mm" d="M554.705994 205.124008 L562.500000 200.624008 L570.294006 205.124008 L570.294006 214.124008 L562.500000 218.624008 L554.705994 214.124008 Z" />
<path stroke="#0000ff" fill="none" stroke-width=".05mm" d="M572.705994 205.124008 L580.500000 200.624008 L588.294006 205.124008 L588.294006 214.124008 L580.500000 218.624008 L572.705994 214.124008 Z" />
<path stroke="#0000ff" fill="none" stroke-width=".05mm" d="M590.705994 205.124008 L598.500000 200.624008 L606.294006 205.124008 L606.294006 214.124008 L598.500000 218.624008 L590.705994 214.124008 Z" />
<path stroke="#0000ff" fill="none" stroke-width=".05mm" d="M608.705994 205.124008 L616.500000 200.624008 L624.294006 205.124008 L624.294006 214.124008 L616.500000 218.624008 L608.705994 214.124008 Z" />
<path stroke="#0000ff" fill="none" stroke-width=".05mm" d="M626.705994 205.124008 L634.500000 200.624008 L642.294006 205.124008 L642.294006 214.124008 L634.500000 218.624008 L626.705994 214.124008 Z" />
<path stroke="#0000ff" fill="none" stroke-width=".05mm" d="M644.705994 205.124008 L652.500000 200.624008 L660.294006 205.124008 L660.294006 214.124008 L652.500000 218.624008 L644.705994 214.124008 Z" />
<path stroke="#0000ff" fill="none" stroke-width=".05mm" d="M662.705994 205.124008 L670.500000 200.624008 L678.294006 205.124008 L678.294006 214.124008 L670.500000 218.624008 L662.705994 214.124008 Z" />
<path stroke="#0000ff" fill="none" stroke-width=".05mm" d="M563.705994 220.712006 L571.500000 216.212006 L579.294006 220.712006 L579.294006 229.712006 L571.500000 234.212006 L563.705994 229.712006 Z" />
<path stroke="#0000ff" fill="none" stroke-width=".05mm" d="M581.705994 220.712006 L589.500000 216.212006 L597.294006 220.712006 L597.294006 229.712006 L589.500000 234.212006 L581.705994 229.712006 Z" />
<path stroke="#0000ff" fill="none" stroke-width=".05mm" d="M599.705994 220.712006 L607.500000 216.212006 L615.294006 220.712006 L615.294006 229.712006 L607.500000 234.212006 L599.705994 229.712006 Z" />
<path stroke="#0000ff" fill="none" stroke-width=".05mm" d="M617.705994 220.712006 L625.500000 216.212006 L633.294006 220.712006 L633.294006 229.712006 L625.500000 234.212006 L617.705994 229.712006 Z" />
<path stroke="#0000ff" fill="none" stroke-width=".05mm" d="M635.705994 220.712006 L643.500000 216.212006 L651.294006 220.712006 L651.294006 229.712006 L643.500000 234.212006 L635.705994 229.712006 Z" />
<path stroke="#0000ff" fill="none" stroke-width=".05mm" d="M653.705994 220.712006 L661.500000 216.212006 L669.294006 220.712006 L669.294006 229.712006 L661.500000 234.212006 L653.705994 229.712006 Z" />
<path stroke="#0000ff" fill="none" stroke-width=".05mm" d="M671.705994 220.712006 L679.500000 216.212006 L687.294006 220.712006 L687.294006 229.712006 L679.500000 234.212006 L671.705994 229.712006 Z" />
<path stroke="#0000ff" fill="none" stroke-width=".05mm" d="M554.705994 236.300003 L562.500000 231.800003 L570.294006 236.300003 L570.294006 245.300003 L562.500000 249.800003 L554.705994 245.300003 Z" />
<path stroke="#0000ff" fill="none" stroke-width=".05mm" d="M572.705994 236.300003 L580.500000 231.800003 L588.294006 236.300003 L588.294006 245.300003 L580.500000 249.800003 L572.705994 245.300003 Z" />
<path stroke="#0000ff" fill="none" stroke-width=".05mm" d="M590.705994 236.300003 L598.500000 231.800003 L606.294006 236.300003 L606.294006 245.300003 L598.500000 249.800003 L590.705994 245.300003 Z" />
<path stroke="#0000ff" fill="none" stroke-width=".05mm" d="M608.705994 236.300003 L616.500000 231.800003 L624.294006 236.300003 L624.294006 245.300003 L616.500000 249.800003 L608.705994 245.300003 Z" />
<path stroke="#0000ff" fill="none" stroke-width=".05mm" d="M626.705994 236.300003 L634.500000 231.800003 L642.294006 236.300003 L642.294006 245.300003 L634.500000 249.800003 L626.705994 245.300003 Z" />
<path stroke="#0000ff" fill="none" stroke-width=".05mm" d="M644.705994 236.300003 L652.500000 231.800003 L660.294006 236.300003 L660.294006 245.300003 L652.500000 249.800003 L644.705994 245.300003 Z" />
<path stroke="#0000ff" fill="none" stroke-width=".05mm" d="M662.705994 236.300003 L670.500000 231.800003 L678.294006 236.300003 L678.294006 245.300003 L670.500000 249.800003 L662.705994 245.300003 Z" />
<path stroke="#0000ff" fill="none" stroke-width=".05mm" d="M563.705994 251.888000 L571.500000 247.388000 L579.294006 251.888000 L579.294006 260.888000 L571.500000 265.388000 L563.705994 260.888000 Z" />
<path stroke="#0000ff" fill="none" stroke-width=".05mm" d="M581.705994 251.888000 L589.500000 247.388000 L597.294006 251.888000 L597.294006 260.888000 L589.500000 265.388000 L581.705994 260.888000 Z" />
<path stroke="#0000ff" fill="none" stroke-width=".05mm" d="M599.705994 251.888000 L607.500000 247.388000 L615.294006 251.888000 L615.294006 260.888000 L607.500000 265.388000 L599.705994 260.888000 Z" />
<path stroke="#0000ff" fill="none" stroke-width=".05mm" d="M617.705994 251.888000 L625.500000 247.388000 L633.294006 251.888000 L633.294006 260.888000 L625.500000 265.388000 L617.705994 260.888000 Z" />
<path stroke="#0000ff" fill="none" stroke-width=".05mm" d="M635.705994 251.888000 L643.500000 247.388000 L651.294006 251.888000 L651.294006 260.888000 L643.500000 265.388000 L635.705994 260.888000 Z" />
<path stroke="#0000ff" fill="none" stroke-width=".05mm" d="M653.705994 251.888000 L661.500000 247.388000 L669.294006 251.888000 L669.294006 260.888000 L661.500000 265.388000 L653.705994 260.888000 Z" />
<path stroke="#0000ff" fill="none" stroke-width=".05mm" d="M671.705994 251.888000 L679.500000 247.388000 L687.294006 251.888000 L687.294006 260.888000 L679.500000 265.388000 L671.705994 260.888000 Z" />
<path stroke="#0000ff" fill="none" stroke-width=".05mm" d="M554.705994 267.476013 L562.500000 262.976013 L570.294006 267.476013 L570.294006 276.476013 L562.500000 280.976013 L554.705994 276.476013 Z" />
<path stroke="#0000ff" fill="none" stroke-width=".05mm" d="M572.705994 267.476013 L580.500000 262.976013 L588.294006 267.476013 L588.294006 276.476013 L580.500000 280.976013 L572.705994 276.476013 Z" />
<path stroke="#0000ff" fill="none" stroke-width=".05mm" d="M590.705994 267.476013 L598.500000 262.976013 L606.294006 267.476013 L606.294006 276.476013 L598.500000 280.976013 L590.705994 276.476013 Z" />
<path stroke="#0000ff" fill="none" stroke-width=".05mm" d="M608.705994 267.476013 L616.500000 262.976013 L624.294006 267.476013 L624.294006 276.476013 L616.500000 280.976013 L608.705994 276.476013 Z" />
<path stroke="#0000ff" fill="none" stroke-width=".05mm" d="M626.705994 267.476013 L634.500000 262.976013 L642.294006 267.476013 L642.294006 276.476013 L634.500000 280.976013 L626.705994 276.476013 Z" />
<path stroke="#0000ff" fill="none" stroke-width=".05mm" d="M644.705994 267.476013 L652.500000 262.976013 L660.294006 267.476013 L660.294006 276.476013 L652.500000 280.976013 L644.705994 276.476013 Z" />
<path stroke="#0000ff" fill="none" stroke-width=".05mm" d="M662.705994 267.476013 L670.500000 262.976013 L678.294006 267.476013 L678.294006 276.476013 L670.500000 280.976013 L662.705994 276.476013 Z" />
<path stroke="#0000ff" fill="none" stroke-width=".05mm" d="M563.705994 283.063995 L571.500000 278.563995 L579.294006 283.063995 L579.294006 292.063995 L571.500000 296.563995 L563.705994 292.063995 Z" />
<path stroke="#0000ff" fill="none" stroke-width=".05mm" d="M581.705994 283.063995 L589.500000 278.563995 L597.294006 283.063995 L597.294006 292.063995 L589.500000 296.563995 L581.705994 292.063995 Z" />
<path stroke="#0000ff" fill="none" stroke-width=".05mm" d="M599.705994 283.063995 L607.500000 278.563995 L615.294006 283.063995 L615.294006 292.063995 L607.500000 296.563995 L599.705994 292.063995 Z" />
<path stroke="#0000ff" fill="none" stroke-width=".05mm" d="M617.705994 283.063995 L625.500000 278.563995 L633.294006 283.063995 L633.294006 292.063995 L625.500000 296.563995 L617.705994 292.063995 Z" />
<path stroke="#0000ff" fill="none" stroke-width=".05mm" d="M635.705994 283.063995 L643.500000 278.563995 L651.294006 283.063995 L651.294006 292.063995 L643.500000 296.563995 L635.705994 292.063995 Z" />
<path stroke="#0000ff" fill="none" stroke-width=".05mm" d="M653.705994 283.063995 L661.500000 278.563995 L669.294006 283.063995 L669.294006 292.063995 L661.500000 296.563995 L653.705994 292.063995 Z" />
<path stroke="#0000ff" fill="none" stroke-width=".05mm" d="M671.705994 283.063995 L679.500000 278.563995 L687.294006 283.063995 L687.294006 292.063995 L679.500000 296.563995 L671.705994 292.063995 Z" />
<path stroke="#0000ff" fill="none" stroke-width=".05mm" d="M554.705994 25.347996 L562.500000 20.847996 L570.294006 25.347996 L570.294006 34.347996 L562.500000 38.847996 L554.705994 34.347996 Z" />
<path stroke="#0000ff" fill="none" stroke-width=".05mm" d="M572.705994 25.347996 L580.500000 20.847996 L588.294006 25.347996 L588.294006 34.347996 L580.500000 38.847996 L572.705994 34.347996 Z" />
<path stroke="#0000ff" fill="none" stroke-width=".05mm" d="M590.705994 25.347996 L598.500000 20.847996 L606.294006 25.347996 L606.294006 34.347996 L598.500000 38.847996 L590.705994 34.347996 Z" />
<path stroke="#0000ff" fill="none" stroke-width=".05mm" d="M608.705994 25.347996 L616.500000 20.847996 L624.294006 25.347996 L624.294006 34.347996 L616.500000 38.847996 L608.705994 34.347996 Z" />
<path stroke="#0000ff" fill="none" stroke-width=".05mm" d="M626.705994 25.347996 L634.500000 20.847996 L642.294006 25.347996 L642.294006 34.347996 L634.500000 38.847996 L626.705994 34.347996 Z" />
<path stroke="#0000ff" fill="none" stroke-width=".05mm" d="M644.705994 25.347996 L652.500000 20.847996 L660.294006 25.347996 L660.294006 34.347996 L652.500000 38.847996 L644.705994 34.347996 Z" />
<path stroke="#0000ff" fill="none" stroke-width=".05mm" d="M662.705994 25.347996 L670.500000 20.847996 L678.294006 25.347996 L678.294006 34.347996 L670.500000 38.847996 L662.705994 34.347996 Z" />
<path stroke="#0000ff" fill="none" stroke-width=".05mm" d="M563.705994 40.935997 L571.500000 36.435997 L579.294006 40.935997 L579.294006 49.935997 L571.500000 54.435997 L563.705994 49.935997 Z" />
<path stroke="#0000ff" fill="none" stroke-width=".05mm" d="M581.705994 40.935997 L589.500000 36.435997 L597.294006 40.935997 L597.294006 49.935997 L589.500000 54.435997 L581.705994 49.935997 Z" />
<path stroke="#0000ff" fill="none" stroke-width=".05mm" d="M599.705994 40.935997 L607.500000 36.435997 L615.294006 40.935997 L615.294006 49.935997 L607.500000 54.435997 L599.705994 49.935997 Z" />
<path stroke="#0000ff" fill="none" stroke-width=".05mm" d="M617.705994 40.935997 L625.500000 36.435997 L633.294006 40.935997 L633.294006 49.935997 L625.500000 54.435997 L617.705994 49.935997 Z" />
<path stroke="#0000ff" fill="none" stroke-width=".05mm" d="M635.705994 40.935997 L643.500000 36.435997 L651.294006 40.935997 L651.294006 49.935997 L643.500000 54.435997 L635.705994 49.935997 Z" />
<path stroke="#0000ff" fill="none" stroke-width=".05mm" d="M653.705994 40.935997 L661.500000 36.435997 L669.294006 40.935997 L669.294006 49.935997 L661.500000 54.435997 L653.705994 49.935997 Z" />
<path stroke="#0000ff" fill="none" stroke-width=".05mm" d="M671.705994 40.935997 L679.500000 36.435997 L687.294006 40.935997 L687.294006 49.935997 L679.500000 54.435997 L671.705994 49.935997 Z" />
<path stroke="#0000ff" fill="none" stroke-width=".05mm" d="M554.705994 56.523994 L562.500000 52.023994 L570.294006 56.523994 L570.294006 65.523994 L562.500000 70.023994 L554.705994 65.523994 Z" />
<path stroke="#0000ff" fill="none" stroke-width=".05mm" d="M572.705994 56.523994 L580.500000 52.023994 L588.294006 56.523994 L588.294006 65.523994 L580.500000 70.023994 L572.705994 65.523994 Z" />
<path stroke="#0000ff" fill="none" stroke-width=".05mm" d="M590.705994 56.523994 L598.500000 52.023994 L606.294006 56.523994 L606.294006 65.523994 L598.500000 70.023994 L590.705994 65.523994 Z" />
<path stroke="#0000ff" fill="none" stroke-width=".05mm" d="M608.705994 56.523994 L616.500000 52.023994 L624.294006 56.523994 L624.294006 65.523994 L616.500000 70.023994 L608.705994 65.523994 Z" />
<path stroke="#0000ff" fill="none" stroke-width=".05mm" d="M626.705994 56.523994 L634.500000 52.023994 L642.294006 56.523994 L642.294006 65.523994 L634.500000 70.023994 L626.705994 65.523994 Z" />
<path stroke="#0000ff" fill="none" stroke-width=".05mm" d="M644.705994 56.523994 L652.500000 52.023994 L660.294006 56.523994 L660.294006 65.523994 L652.500000 70.023994 L644.705994 65.523994 Z" />
<path stroke="#0000ff" fill="none" stroke-width=".05mm" d="M662.705994 56.523994 L670.500000 52.023994 L678.294006 56.523994 L678.294006 65.523994 L670.500000 70.023994 L662.705994 65.523994 Z" />
<path stroke="#0000ff" fill="none" stroke-width=".05mm" d="M563.705994 72.112000 L571.500000 67.612000 L579.294006 72.112000 L579.294006 81.112000 L571.500000 85.612000 L563.705994 81.112000 Z" />
<path stroke="#0000ff" fill="none" stroke-width=".05mm" d="M581.705994 72.112000 L589.500000 67.612000 L597.294006 72.112000 L597.294006 81.112000 L589.500000 85.612000 L581.705994 81.112000 Z" />
<path stroke="#0000ff" fill="none" stroke-width=".05mm" d="M599.705994 72.112000 L607.500000 67.612000 L615.294006 72.112000 L615.294006 81.112000 L607.500000 85.612000 L599.705994 81.112000 Z" />
<path stroke="#0000ff" fill="none" stroke-width=".05mm" d="M617.705994 72.112000 L625.500000 67.612000 L633.294006 72.112000 L633.294006 81.112000 L625.500000 85.612000 L617.705994 81.112000 Z" />
<path stroke="#0000ff" fill="none" stroke-width=".05mm" d="M635.705994 72.112000 L643.500000 67.612000 L651.294006 72.112000 L651.294006 81.112000 L643.500000 85.612000 L635.705994 81.112000 Z" />
<path stroke="#0000ff" fill="none" stroke-width=".05mm" d="M653.705994 72.112000 L661.500000 67.612000 L669.294006 72.112000 L669.294006 81.112000 L661.500000 85.612000 L653.705994 81.112000 Z" />
<path stroke="#0000ff" fill="none" stroke-width=".05mm" d="M671.705994 72.112000 L679.500000 67.612000 L687.294006 72.112000 L687.294006 81.112000 L679.500000 85.612000 L671.705994 81.112000 Z" />
<path stroke="#0000ff" fill="none" stroke-width=".05mm" d="M554.705994 87.699997 L562.500000 83.199997 L570.294006 87.699997 L570.294006 96.699997 L562.500000 101.199997 L554.705994 96.699997 Z" />
<path stroke="#0000ff" fill="none" stroke-width=".05mm" d="M572.705994 87.699997 L580.500000 83.199997 L588.294006 87.699997 L588.294006 96.699997 L580.500000 101.199997 L572.705994 96.699997 Z" />
<path stroke="#0000ff" fill="none" stroke-width=".05mm" d="M590.705994 87.699997 L598.500000 83.199997 L606.294006 87.699997 L606.294006 96.699997 L598.500000 101.199997 L590.705994 96.699997 Z" />
<path stroke="#0000ff" fill="none" stroke-width=".05mm" d="M608.705994 87.699997 L616.500000 83.199997 L624.294006 87.699997 L624.294006 96.699997 L616.500000 101.199997 L608.705994 96.699997 Z" />
<path stroke="#0000ff" fill="none" stroke-width=".05mm" d="M626.705994 87.699997 L634.500000 83.199997 L642.294006 87.699997 L642.294006 96.699997 L634.500000 101.199997 L626.705994 96.699997 Z" />
<path stroke="#0000ff" fill="none" stroke-width=".05mm" d="M644.705994 87.699997 L652.500000 83.199997 L660.294006 87.699997 L660.294006 96.699997 L652.500000 101.199997 L644.705994 96.699997 Z" />
<path stroke="#0000ff" fill="none" stroke-width=".05mm" d="M662.705994 87.699997 L670.500000 83.199997 L678.294006 87.699997 L678.294006 96.699997 L670.500000 101.199997 L662.705994 96.699997 Z" />
<path stroke="#0000ff" fill="none" stroke-width=".05mm" d="M563.705994 103.287994 L571.500000 98.787994 L579.294006 103.287994 L579.294006 112.287994 L571.500000 116.787994 L563.705994 112.287994 Z" />
<path stroke="#0000ff" fill="none" stroke-width=".05mm" d="M581.705994 103.287994 L589.500000 98.787994 L597.294006 103.287994 L597.294006 112.287994 L589.500000 116.787994 L581.705994 112.287994 Z" />
<path stroke="#0000ff" fill="none" stroke-width=".05mm" d="M599.705994 103.287994 L607.500000 98.787994 L615.294006 103.287994 L615.294006 112.287994 L607.500000 116.787994 L599.705994 112.287994 Z" />
<path stroke="#0000ff" fill="none" stroke-width=".05mm" d="M617.705994 103.287994 L625.500000 98.787994 L633.294006 103.287994 L633.294006 112.287994 L625.500000 116.787994 L617.705994 112.287994 Z" />
<path stroke="#0000ff" fill="none" stroke-width=".05mm" d="M635.705994 103.287994 L643.500000 98.787994 L651.294006 103.287994 L651.294006 112.287994 L643.500000 116.787994 L635.705994 112.287994 Z" />
<path stroke="#0000ff" fill="none" stroke-width=".05mm" d="M653.705994 103.287994 L661.500000 98.787994 L669.294006 103.287994 L669.294006 112.287994 L661.500000 116.787994 L653.705994 112.287994 Z" />
<path stroke="#0000ff" fill="none" stroke-width=".05mm" d="M671.705994 103.287994 L679.500000 98.787994 L687.294006 103.287994 L687.294006 112.287994 L679.500000 116.787994 L671.705994 112.287994 Z" />
<path stroke="#0000ff" fill="none" stroke-width=".05mm" d="M554.705994 118.875999 L562.500000 114.375999 L570.294006 118.875999 L570.294006 127.875999 L562.500000 132.376007 L554.705994 127.875999 Z" />
<path stroke="#0000ff" fill="none" stroke-width=".05mm" d="M572.705994 118.875999 L580.500000 114.375999 L588.294006 118.875999 L588.294006 127.875999 L580.500000 132.376007 L572.705994 127.875999 Z" />
<path stroke="#0000ff" fill="none" stroke-width=".05mm" d="M590.705994 118.875999 L598.500000 114.375999 L606.294006 118.875999 L606.294006 127.875999 L598.500000 132.376007 L590.705994 127.875999 Z" />
<path stroke="#0000ff" fill="none" stroke-width=".05mm" d="M608.705994 118.875999 L616.500000 114.375999 L624.294006 118.875999 L624.294006 127.875999 L616.500000 132.376007 L608.705994 127.875999 Z" />
<path stroke="#0000ff" fill="none" stroke-width=".05mm" d="M626.705994 118.875999 L634.500000 114.375999 L642.294006 118.875999 L642.294006 127.875999 L634.500000 132.376007 L626.705994 127.875999 Z" />
<path stroke="#0000ff" fill="none" stroke-width=".05mm" d="M644.705994 118.875999 L652.500000 114.375999 L660.294006 118.875999 L660.294006 127.875999 L652.500000 132.376007 L644.705994 127.875999 Z" />
<path stroke="#0000ff" fill="none" stroke-width=".05mm" d="M662.705994 118.875999 L670.500000 114.375999 L678.294006 118.875999 L678.294006 127.875999 L670.500000 132.376007 L662.705994 127.875999 Z" />
<path stroke="#0000ff" fill="none" stroke-width=".05mm" d="M563.705994 134.463989 L571.500000 129.963989 L579.294006 134.463989 L579.294006 143.463989 L571.500000 147.963989 L563.705994 143.463989 Z" />
<path stroke="#0000ff" fill="none" stroke-width=".05mm" d="M581.705994 134.463989 L589.500000 129.963989 L597.294006 134.463989 L597.294006 143.463989 L589.500000 147.963989 L581.705994 143.463989 Z" />
<path stroke="#0000ff" fill="none" stroke-width=".05mm" d="M599.705994 134.463989 L607.500000 129.963989 L615.294006 134.463989 L615.294006 143.463989 L607.500000 147.963989 L599.705994 143.463989 Z" />
<path stroke="#0000ff" fill="none" stroke-width=".05mm" d="M617.705994 134.463989 L625.500000 129.963989 L633.294006 134.463989 L633.294006 143.463989 L625.500000 147.963989 L617.705994 143.463989 Z" />
<path stroke="#0000ff" fill="none" stroke-width=".05mm" d="M635.705994 134.463989 L643.500000 129.963989 L651.294006 134.463989 L651.294006 143.463989 L643.500000 147.963989 L635.705994 143.463989 Z" />
<path stroke="#0000ff" fill="none" stroke-width=".05mm" d="M653.705994 134.463989 L661.500000 129.963989 L669.294006 134.463989 L669.294006 143.463989 L661.500000 147.963989 L653.705994 143.463989 Z" />
<path stroke="#0000ff" fill="none" stroke-width=".05mm" d="M671.705994 134.463989 L679.500000 129.963989 L687.294006 134.463989 L687.294006 143.463989 L679.500000 147.963989 L671.705994 143.463989 Z" />
</svg>